PathFileType  4	(X/Y/Z) /Users/mattheworga/Documents/Git/desktop-development/pyqt5/sandbox-thesis/process/test_subjects/S00_Demo_Batch/S00_P00/Trial_1/pose-3d
DataRate	CameraRate	NumFrames	NumMarkers	Units	OrigDataRate	OrigDataStartFrame	OrigNumFrames
60.0	60.0	9	23	m	60.0	16	99
Frame#	Time	Hip			RHip			RKnee			RAnkle			RBigToe			RSmallToe			RHeel			LHip			LKnee			LAnkle			LBigToe			LSmallToe			LHeel			Neck			Head			Nose			RShoulder			RElbow			RWrist			LShoulder			LElbow			LWrist			CHip			
		X1	Y1	Z1	X2	Y2	Z2	X3	Y3	Z3	X4	Y4	Z4	X5	Y5	Z5	X6	Y6	Z6	X7	Y7	Z7	X8	Y8	Z8	X9	Y9	Z9	X10	Y10	Z10	X11	Y11	Z11	X12	Y12	Z12	X13	Y13	Z13	X14	Y14	Z14	X15	Y15	Z15	X16	Y16	Z16	X17	Y17	Z17	X18	Y18	Z18	X19	Y19	Z19	X20	Y20	Z20	X21	Y21	Z21	X22	Y22	Z22	X23	Y23	Z23	

17	0.2666667	-0.0498385	0.9174650	-1.2569811	-0.1315001	0.9297437	-1.2646052	-0.1694544	0.5107308	-1.2607878	-0.0428164	0.2280052	-1.5208279	-0.0566335	0.1055233	-1.4088740	-0.0840621	0.1070322	-1.4726488	-0.0087871	0.2080646	-1.5774613	0.0310304	0.8932117	-1.2418744	-0.0370922	0.5274070	-1.0766685	-0.0158814	0.1763383	-1.1180946	-0.0481102	0.0863425	-0.9802257	0.0037624	0.0867163	-1.0046516	-0.0016470	0.0983619	-1.1952130	0.1050065	1.4536461	-1.2350709	0.1574895	1.6851383	-1.0756618	0.1143082	1.5237794	-1.0592403	-0.0800633	1.4353629	-1.3135019	-0.3011845	1.2934494	-1.3685967	-0.4254017	1.2568951	-1.0871075	0.2594577	1.3305470	-1.2620908	0.3297625	1.0608041	-1.2798778	0.3565341	0.8010305	-1.2213845	-0.0502349	0.9114777	-1.2532398
18	0.2833333	-0.0554913	0.9151185	-1.2588358	-0.1360559	0.9311282	-1.2605628	-0.1937523	0.5164998	-1.2338806	-0.0612465	0.2362298	-1.4984914	-0.0751515	0.1182871	-1.3895703	-0.1047693	0.1173510	-1.4529914	-0.0254307	0.2160990	-1.5558590	0.0271452	0.8902544	-1.2326658	-0.0446840	0.5269963	-1.0655244	-0.0163224	0.1807527	-1.1114853	-0.0483998	0.0864711	-0.9771295	0.0073693	0.0862261	-1.0070490	-0.0005326	0.0981719	-1.1976858	0.1152198	1.4484481	-1.2242364	0.1703748	1.6784708	-1.0642243	0.1249898	1.5182656	-1.0516755	-0.0698951	1.4374073	-1.3050539	-0.2976397	1.3056651	-1.3625495	-0.4216841	1.2846937	-1.0798869	0.2670251	1.3220287	-1.2488756	0.3333336	1.0490232	-1.2636573	0.3552115	0.7898829	-1.2060733	-0.0544553	0.9106913	-1.2466143
19	0.3000000	-0.0602520	0.9134828	-1.2582293	-0.1405749	0.9326908	-1.2561309	-0.2190150	0.5246529	-1.2063791	-0.0830034	0.2428620	-1.4731843	-0.0990345	0.1302248	-1.3654756	-0.1307979	0.1274696	-1.4293317	-0.0465522	0.2210988	-1.5298038	0.0230300	0.8875944	-1.2249078	-0.0498259	0.5243446	-1.0566647	-0.0163047	0.1818839	-1.1097171	-0.0479663	0.0868414	-0.9750613	0.0119529	0.0848369	-1.0112237	0.0007683	0.0993320	-1.1979588	0.1250863	1.4431034	-1.2134885	0.1823515	1.6710268	-1.0534585	0.1347161	1.5130403	-1.0428556	-0.0598382	1.4387326	-1.2975918	-0.2933606	1.3172223	-1.3574583	-0.4155171	1.3117784	-1.0766796	0.2742866	1.3133886	-1.2354966	0.3362657	1.0371540	-1.2472945	0.3533336	0.7796911	-1.1905199	-0.0587724	0.9101426	-1.2405194
20	0.3166667	-0.0639296	0.9126688	-1.2549574	-0.1448013	0.9346212	-1.2508055	-0.2444045	0.5348885	-1.1797182	-0.1078385	0.2472781	-1.4462521	-0.1282922	0.1394705	-1.3370863	-0.1617079	0.1363922	-1.4022873	-0.0719176	0.2228662	-1.5009808	0.0186931	0.8853511	-1.2185594	-0.0531815	0.5205383	-1.0497354	-0.0161940	0.1792756	-1.1134542	-0.0463950	0.0873094	-0.9744627	0.0162368	0.0828780	-1.0159919	0.0018994	0.1014922	-1.1965505	0.1344910	1.4377423	-1.2028922	0.1936291	1.6633344	-1.0427409	0.1433733	1.5078674	-1.0323956	-0.0499511	1.4393108	-1.2910930	-0.2884389	1.3280187	-1.3531616	-0.4075452	1.3378548	-1.0771536	0.2809644	1.3048434	-1.2222944	0.3384427	1.0255513	-1.2309736	0.3508972	0.7702603	-1.1748092	-0.0630541	0.9099862	-1.2346824
21	0.3333333	-0.0665127	0.9124497	-1.2496186	-0.1485604	0.9368950	-1.2445152	-0.2690904	0.5462272	-1.1555931	-0.1354842	0.2493238	-1.4188975	-0.1626659	0.1451544	-1.3052557	-0.1969750	0.1438139	-1.3725983	-0.1008911	0.2218785	-1.4713742	0.0148033	0.8835261	-1.2127106	-0.0553157	0.5165123	-1.0439160	-0.0161891	0.1734083	-1.1220066	-0.0440344	0.0877595	-0.9749830	0.0190158	0.0809665	-1.0196975	0.0024074	0.1032806	-1.1950632	0.1433410	1.4323609	-1.1924860	0.2043796	1.6555918	-1.0323776	0.1509993	1.5023889	-1.0206790	-0.0403324	1.4391178	-1.2852216	-0.2829091	1.3380293	-1.3493271	-0.3987178	1.3624877	-1.0805451	0.2868812	1.2965344	-1.2095806	0.3398207	1.0145809	-1.2149065	0.3479968	0.7614542	-1.1591743	-0.0668785	0.9102106	-1.2286129
22	0.3500000	-0.0681907	0.9126015	-1.2428259	-0.1517674	0.9393990	-1.2374918	-0.2924045	0.5576094	-1.1348996	-0.1658102	0.2493039	-1.3918317	-0.2017177	0.1475309	-1.2710770	-0.2359814	0.1497593	-1.3411264	-0.1328689	0.2188905	-1.4424176	0.0122337	0.8821617	-1.2061881	-0.0566406	0.5128400	-1.0384710	-0.0163200	0.1658929	-1.1329775	-0.0421025	0.0879010	-0.9759866	0.0197034	0.0793961	-1.0215176	0.0020065	0.1037816	-1.1946209	0.1516247	1.4269560	-1.1823541	0.2148482	1.6479415	-1.0227715	0.1577960	1.4965670	-1.0084448	-0.0311237	1.4382380	-1.2794258	-0.2768883	1.3473026	-1.3455562	-0.3898357	1.3851412	-1.0854410	0.2920409	1.2886240	-1.1976645	0.3404822	1.0046245	-1.1994503	0.3448266	0.7532530	-1.1438513	-0.0697668	0.9107803	-1.2218400
23	0.3666667	-0.0693405	0.9130527	-1.2350081	-0.1543623	0.9419981	-1.2300353	-0.3139514	0.5683719	-1.1174039	-0.1985886	0.2478262	-1.3653799	-0.2445237	0.1475848	-1.2359384	-0.2776808	0.1543103	-1.3088081	-0.1672759	0.2146810	-1.4146369	0.0113587	0.8813509	-1.1983304	-0.0574740	0.5096742	-1.0329090	-0.0165507	0.1589698	-1.1429741	-0.0417272	0.0873994	-0.9770933	0.0183353	0.0781142	-1.0215587	0.0008025	0.1034070	-1.1949851	0.1594319	1.4216288	-1.1726530	0.2254411	1.6407796	-1.0134784	0.1641666	1.4909694	-0.9963486	-0.0224646	1.4369024	-1.2731947	-0.2706190	1.3559086	-1.3415106	-0.3812724	1.4053217	-1.0900318	0.2966332	1.2812646	-1.1868742	0.3406550	0.9959083	-1.1850456	0.3416320	0.7456588	-1.1289724	-0.0715018	0.9116745	-1.2141829
24	0.3833333	-0.0704271	0.9137704	-1.2264687	-0.1563629	0.9445321	-1.2223185	-0.3336925	0.5782839	-1.1023254	-0.2333972	0.2456001	-1.3396248	-0.2896315	0.1466313	-1.2012747	-0.3206147	0.1576893	-1.2765933	-0.2035255	0.2099449	-1.3878577	0.0117194	0.8810517	-1.1891970	-0.0580079	0.5068550	-1.0270764	-0.0167059	0.1540991	-1.1498083	-0.0430867	0.0861653	-0.9782434	0.0155134	0.0769829	-1.0204905	-0.0007058	0.1030132	-1.1955976	0.1668777	1.4164725	-1.1635780	0.2364926	1.6344553	-1.0037123	0.1707093	1.4862192	-0.9847783	-0.0144622	1.4353456	-1.2663229	-0.2644496	1.3639029	-1.3369075	-0.3731098	1.4229254	-1.0928493	0.3009137	1.2744139	-1.1774279	0.3406360	0.9883718	-1.1720312	0.3386480	0.7386729	-1.1146006	-0.0723217	0.9127919	-1.2057578
25	0.4000000	-0.0718680	0.9146001	-1.2173813	-0.1579837	0.9468252	-1.2142969	-0.3518498	0.5873767	-1.0889316	-0.2697167	0.2433323	-1.3145213	-0.3352273	0.1460467	-1.1682921	-0.3633294	0.1602616	-1.2454567	-0.2411116	0.2052961	-1.3617006	0.0122406	0.8809290	-1.1793979	-0.0583073	0.5042051	-1.0210890	-0.0165662	0.1512889	-1.1534260	-0.0453331	0.0845246	-0.9794508	0.0123489	0.0759609	-1.0192681	-0.0019921	0.1029124	-1.1964809	0.1739934	1.4114199	-1.1552420	0.2479389	1.6287496	-0.9934451	0.1780277	1.4821651	-0.9738211	-0.0072157	1.4336892	-1.2589281	-0.2586826	1.3713118	-1.3315727	-0.3652624	1.4383566	-1.0931711	0.3050721	1.2677628	-1.1693166	0.3406821	0.9817082	-1.1605580	0.3360130	0.7322732	-1.1008281	-0.0728716	0.9138771	-1.1968474
